<svg width="28" height="28" viewBox="0 0 28 28" fill="none" xmlns="http://www.w3.org/2000/svg">
<path d="M2 11.8022C2 17.2124 6.43716 21.6067 11.8952 21.6067C13.925 21.6067 15.7878 20.9886 17.3409 19.9453L22.9255 25.4886C23.2751 25.835 23.7383 26 24.2257 26C25.2602 26 26 25.2254 26 24.2124C26 23.7359 25.8234 23.2913 25.4894 22.9603L19.9477 17.4377C21.1079 15.8562 21.7904 13.9119 21.7904 11.8022C21.7904 6.3943 17.3532 2 11.8952 2C6.43716 2 2 6.3943 2 11.8022ZM4.57752 11.8022C4.57752 7.8018 7.8577 4.55388 11.8952 4.55388C15.9327 4.55388 19.2106 7.8018 19.2106 11.8022C19.2106 15.8049 15.9327 19.0527 11.8952 19.0527C7.8577 19.0527 4.57752 15.8049 4.57752 11.8022Z" fill="#1B1B1E"/>
</svg>
