<svg width="24" height="24" viewBox="0 0 24 24" fill="none" xmlns="http://www.w3.org/2000/svg">
<path d="M19.6266 14C18.3291 14 17.2848 12.8796 17.2848 11.4916C17.2848 10.1204 18.3291 9 19.6266 9C20.9399 9 22 10.1204 22 11.4916C22 12.8796 20.9399 14 19.6266 14ZM12 14C10.7025 14 9.6424 12.8796 9.6424 11.4916C9.6424 10.1204 10.7025 9 12 9C13.2975 9 14.3576 10.1204 14.3576 11.4916C14.3576 12.8796 13.2975 14 12 14ZM4.35759 14C3.06013 14 2 12.8796 2 11.4916C2 10.1204 3.06013 9 4.35759 9C5.65506 9 6.71519 10.1204 6.71519 11.4916C6.71519 12.8796 5.65506 14 4.35759 14Z" fill="#79828F"/>
</svg>
