<svg width="23" height="24" viewBox="0 0 23 24" fill="none" xmlns="http://www.w3.org/2000/svg">
<path d="M11.5191 23H13.4809C14.2794 23 14.9038 22.5034 15.0883 21.7385L15.4815 20.0264L15.7386 19.9374L17.2312 20.8529C17.9049 21.274 18.6945 21.1686 19.2611 20.5979L20.62 19.2493C21.1901 18.6718 21.292 17.8771 20.8712 17.2142L19.9407 15.7319L20.0358 15.4921L21.743 15.0872C22.4993 14.899 23 14.2696 23 13.4784V11.5693C23 10.7797 22.5072 10.1469 21.743 9.96051L20.0517 9.54768L19.9486 9.29201L20.8792 7.80964C21.3017 7.14675 21.1981 6.35999 20.6279 5.77452L19.2691 4.41796C18.7104 3.85533 17.9208 3.74636 17.2471 4.16306L15.7545 5.07853L15.4815 4.97363L15.0883 3.26152C14.9038 2.49489 14.2794 2 13.4809 2H11.5191C10.7206 2 10.0961 2.49838 9.91166 3.26152L9.51058 4.97363L9.23753 5.07853L7.75293 4.16306C7.07918 3.74984 6.28168 3.85533 5.723 4.41796L4.37203 5.77452C3.80194 6.35999 3.69035 7.14675 4.12083 7.80964L5.04346 9.29201L4.94831 9.54768L3.25698 9.96051C2.48926 10.1486 2 10.7797 2 11.5693V13.4784C2 14.2696 2.50067 14.9008 3.25698 15.0872L4.96417 15.4921L5.05138 15.7319L4.12875 17.2142C3.69828 17.8771 3.80987 18.6718 4.37996 19.2493L5.73092 20.5979C6.29753 21.1686 7.09504 21.274 7.76878 20.8529L9.25338 19.9374L9.51058 20.0264L9.91166 21.7385C10.0961 22.5034 10.7206 23 11.5191 23ZM11.759 21.2465C11.5964 21.2465 11.5129 21.1771 11.4856 21.0274L10.9124 18.6431C10.3 18.505 9.71228 18.2571 9.2443 17.9574L7.15035 19.2437C7.03606 19.3291 6.91384 19.3114 6.80129 19.1988L5.76998 18.1684C5.66362 18.0619 5.65917 17.9476 5.73304 17.8191L7.02349 15.7392C6.75759 15.277 6.49923 14.6958 6.35149 14.0828L3.96921 13.5188C3.81972 13.4916 3.7503 13.4079 3.7503 13.2452V11.7946C3.7503 11.6239 3.81179 11.5499 3.96921 11.5209L6.34356 10.949C6.49478 10.306 6.77963 9.70367 7.00763 9.28465L5.72511 7.20481C5.64331 7.06836 5.64602 6.95397 5.75238 6.83959L6.79337 5.82502C6.90591 5.71238 7.01228 5.69651 7.15035 5.78012L9.2267 7.04261C9.66509 6.78075 10.3036 6.51791 10.9186 6.35515L11.4856 3.9726C11.5129 3.823 11.5964 3.75351 11.759 3.75351H13.2409C13.4036 3.75351 13.4854 3.823 13.5064 3.9726L14.0893 6.37101C14.7167 6.52411 15.2788 6.77824 15.7574 7.05055L17.8364 5.7836C17.9842 5.69999 18.0809 5.71412 18.2031 5.82851L19.2344 6.84308C19.3487 6.95746 19.3452 7.07185 19.2635 7.20829L17.9844 9.28465C18.2186 9.70193 18.4973 10.306 18.6468 10.9455L21.0307 11.5209C21.1802 11.5499 21.2497 11.6239 21.2497 11.7946V13.2452C21.2497 13.4079 21.1706 13.4916 21.0307 13.5188L18.6389 14.0863C18.4911 14.694 18.2407 15.2822 17.9685 15.7392L19.2538 17.8155C19.3294 17.9441 19.3328 18.0585 19.2186 18.1649L18.1952 19.1953C18.0713 19.3097 17.9587 19.3238 17.8364 19.2402L15.7513 17.9574C15.2745 18.2571 14.7209 18.498 14.0893 18.6431L13.5064 21.0274C13.4854 21.1771 13.4036 21.2465 13.2409 21.2465H11.759ZM12.4991 16.1793C14.5113 16.1793 16.1656 14.5236 16.1656 12.5C16.1656 10.4941 14.5113 8.84008 12.4991 8.84008C10.487 8.84008 8.82291 10.4941 8.82291 12.5C8.82291 14.5174 10.479 16.1793 12.4991 16.1793ZM12.4991 14.5191C11.3976 14.5191 10.4914 13.6121 10.4914 12.5C10.4914 11.4055 11.3994 10.5003 12.4991 10.5003C13.5831 10.5003 14.4875 11.409 14.4875 12.5C14.4875 13.6042 13.5831 14.5191 12.4991 14.5191Z" fill="#79828F"/>
</svg>
