<svg width="12" height="12" viewBox="0 0 12 12" fill="none" xmlns="http://www.w3.org/2000/svg">
<path d="M2.82641 10.5911H3.95197C4.05126 10.5911 4.12337 10.6198 4.19736 10.6938L4.99608 11.4872C5.67717 12.1736 6.31853 12.1692 6.99962 11.4872L7.79835 10.6938C7.87663 10.6198 7.94443 10.5911 8.04805 10.5911H9.1693C10.136 10.5911 10.5905 10.139 10.5905 9.16894V8.04769C10.5905 7.94505 10.6201 7.87627 10.6941 7.79799L11.4876 7.0002C12.1729 6.31916 12.1686 5.67775 11.4876 4.99572L10.6941 4.19795C10.6192 4.12396 10.5905 4.05185 10.5905 3.95256V2.827C10.5905 1.86454 10.1385 1.40577 9.1693 1.40577H8.04805C7.94443 1.40577 7.87569 1.38048 7.79835 1.30649L6.99962 0.513007C6.31759 -0.173309 5.67717 -0.169006 4.99608 0.513952L4.19736 1.30649C4.12431 1.38048 4.05126 1.40577 3.95197 1.40577H2.82641C1.85965 1.40577 1.40518 1.85499 1.40518 2.827V3.95256C1.40518 4.05185 1.37989 4.12491 1.3059 4.19795L0.512416 4.99572C-0.172955 5.67775 -0.168652 6.31916 0.512416 7.0002L1.3059 7.79799C1.37989 7.87627 1.40518 7.94505 1.40518 8.04769V9.16894C1.40518 10.1357 1.86059 10.5911 2.82641 10.5911Z" fill="#1B1B1E"/>
<path d="M5.41508 8.58702C5.21683 8.58702 5.05571 8.50561 4.90891 8.31528L3.62285 6.75092C3.52902 6.63081 3.48084 6.50543 3.48084 6.37672C3.48084 6.10512 3.69285 5.88829 3.96354 5.88829C4.12559 5.88829 4.25144 5.9483 4.38641 6.12147L5.39789 7.40576L7.56694 3.93134C7.68176 3.74787 7.83048 3.65782 7.99581 3.65782C8.25264 3.65782 8.49423 3.8417 8.49423 4.11238C8.49423 4.23781 8.43073 4.36607 8.35738 4.48236L5.90128 8.31152C5.78162 8.49078 5.61149 8.58702 5.41508 8.58702Z" fill="#F5F6FA"/>
</svg>
