<svg width="21" height="21" viewBox="0 0 21 21" fill="none" xmlns="http://www.w3.org/2000/svg">
<g clip-path="url(#clip0_101_1083)">
<path d="M10.4991 21C16.2512 21 21 16.2443 21 10.5C21 4.74744 16.2428 0 10.4908 0C4.74886 0 0 4.74744 0 10.5C0 16.2443 4.75719 21 10.4991 21ZM10.4991 18.9317C5.82055 18.9317 2.0765 15.1789 2.0765 10.5C2.0765 5.82106 5.81222 2.06836 10.4908 2.06836C15.1693 2.06836 18.9318 5.82106 18.9318 10.5C18.9318 15.1789 15.1776 18.9317 10.4991 18.9317Z" fill="#1B1B1E"/>
<path d="M5.79758 10.4981C5.79758 11.0493 6.18706 11.4341 6.75117 11.4341H9.53816V14.2297C9.53816 14.7855 9.93132 15.1834 10.4824 15.1834C11.0437 15.1834 11.4433 14.7938 11.4433 14.2297V11.4341H14.2405C14.7962 11.4341 15.1922 11.0493 15.1922 10.4981C15.1922 9.93684 14.7962 9.53714 14.2405 9.53714H11.4433V6.7499C11.4433 6.18391 11.0437 5.78789 10.4824 5.78789C9.93132 5.78789 9.53816 6.18391 9.53816 6.7499V9.53714H6.75117C6.18706 9.53714 5.79758 9.93684 5.79758 10.4981Z" fill="#1B1B1E"/>
</g>
<defs>
<clipPath id="clip0_101_1083">
<rect width="21" height="21" fill="white"/>
</clipPath>
</defs>
</svg>
