<svg width="10" height="9" viewBox="0 0 10 9" fill="none" xmlns="http://www.w3.org/2000/svg">
<path d="M0 3.0016C0 5.05229 1.77372 7.07898 4.53063 8.8079C4.68379 8.90395 4.87154 9 5 9C5.12846 9 5.31621 8.90395 5.46937 8.8079C8.23123 7.07898 10 5.05229 10 3.0016C10 1.22946 8.74012 0 7.12451 0C6.18083 0 5.44466 0.417823 5 1.05176C4.56522 0.422625 3.82411 0 2.88043 0C1.25988 0 0 1.22946 0 3.0016ZM1.01779 2.9968C1.01779 1.78655 1.83794 0.965315 2.93972 0.965315C3.82905 0.965315 4.32806 1.48879 4.63933 1.94504C4.77767 2.14194 4.87154 2.20438 5 2.20438C5.1334 2.20438 5.21739 2.13714 5.36067 1.94504C5.69664 1.4984 6.17589 0.965315 7.06028 0.965315C8.167 0.965315 8.98715 1.78655 8.98715 2.9968C8.98715 4.6873 7.17885 6.5603 5.09387 7.90502C5.04941 7.93383 5.01976 7.95304 5 7.95304C4.98024 7.95304 4.95059 7.93383 4.91107 7.90502C2.82609 6.5603 1.01779 4.6873 1.01779 2.9968Z" fill="#1B1B1E"/>
</svg>
